<?xml version="1.0" standalone="no"?>
<!DOCTYPE svg PUBLIC "-//W3C//DTD SVG 20010904//EN"
 "http://www.w3.org/TR/2001/REC-SVG-20010904/DTD/svg10.dtd">
<svg version="1.0" xmlns="http://www.w3.org/2000/svg"
 width="583.000000pt" height="729.000000pt" viewBox="0 0 583.000000 729.000000"
 preserveAspectRatio="xMidYMid meet">
<metadata>
Created by potrace 1.16, written by Peter Selinger 2001-2019
</metadata>
<g transform="translate(0.000000,729.000000) scale(0.100000,-0.100000)"
fill="#000000" stroke="none">
<path d="M2220 7080 c-70 -7 -97 -22 -105 -59 -8 -38 1 -72 40 -151 67 -136
101 -285 85 -372 -10 -49 -57 -145 -83 -166 -6 -5 -68 -26 -137 -46 -212 -62
-289 -96 -395 -171 -143 -101 -243 -254 -279 -426 -5 -23 -15 -28 -111 -51
-202 -50 -396 -170 -527 -324 -79 -92 -113 -155 -130 -239 -8 -42 -21 -72 -45
-100 -77 -91 -82 -247 -12 -386 19 -39 137 -459 213 -764 214 -854 332 -1672
372 -2560 5 -132 25 -281 46 -345 27 -85 100 -202 167 -264 l31 -30 -95 -32
c-167 -58 -245 -114 -245 -177 0 -28 72 -107 97 -107 7 0 13 -4 13 -9 0 -13
243 -88 355 -110 340 -66 573 -85 1040 -85 641 1 1088 64 1352 191 203 97 153
211 -132 303 -38 13 -72 24 -74 26 -2 1 7 17 19 33 69 98 113 242 156 510 22
143 30 171 45 176 35 12 115 115 174 226 93 175 205 274 460 409 218 115 253
135 325 183 132 88 192 138 301 249 245 248 409 525 481 813 18 73 22 119 22
245 0 191 -15 262 -92 415 -83 167 -190 277 -341 350 -234 115 -564 74 -777
-96 -35 -28 -64 -46 -64 -41 0 43 121 398 180 526 75 166 59 359 -35 421 -22
14 -36 35 -49 77 -12 38 -32 72 -59 100 l-40 41 12 62 c40 219 -39 401 -235
541 -70 50 -191 109 -244 119 -28 5 -40 15 -61 53 -41 74 -104 147 -176 207
-76 62 -236 145 -330 170 l-62 17 -27 80 c-100 287 -373 508 -692 558 -80 13
-257 19 -332 10z m315 -91 c33 -5 98 -22 144 -36 71 -23 81 -28 66 -39 -14
-10 -11 -12 18 -9 24 2 48 -6 83 -27 56 -35 99 -75 99 -92 0 -6 9 -11 20 -11
11 0 19 -6 17 -13 -1 -6 3 -11 9 -10 6 2 16 -5 22 -16 7 -10 24 -32 40 -48 15
-17 27 -36 27 -44 0 -8 5 -14 11 -14 8 0 7 -6 -2 -17 -8 -10 -9 -14 -2 -10 18
11 66 -76 58 -105 -5 -17 -4 -19 4 -9 8 12 11 9 16 -15 4 -16 14 -50 22 -76 9
-26 12 -59 9 -74 -5 -17 -3 -23 4 -19 11 7 15 -147 3 -159 -7 -7 -8 -15 -11
-124 -1 -39 -6 -61 -12 -57 -13 8 -13 2 2 -30 15 -32 27 -28 59 21 46 71 68
223 50 349 -6 38 -9 70 -8 71 8 8 215 -104 272 -148 78 -60 176 -169 174 -196
-1 -16 -2 -16 -6 1 -2 9 -9 17 -14 17 -4 0 -3 -11 3 -25 8 -19 14 -22 20 -13
11 18 22 -1 48 -80 34 -105 29 -226 -15 -335 -27 -68 -121 -218 -166 -268 -13
-14 -32 -39 -41 -55 -10 -16 -22 -28 -27 -27 -5 1 -8 -5 -7 -15 0 -9 -4 -16
-10 -15 -7 1 -10 -6 -7 -17 3 -11 13 -20 23 -20 33 0 105 31 131 56 14 13 29
21 33 17 4 -5 6 -1 4 7 -2 8 3 14 10 12 8 -1 11 2 7 8 -8 13 36 71 48 63 6 -4
8 0 4 11 -4 11 6 35 28 68 19 27 35 56 35 63 0 8 6 20 13 27 6 7 13 20 15 28
1 8 7 24 12 35 33 74 47 227 28 315 -3 14 -3 19 -1 11 4 -11 7 -11 13 -2 17
28 205 -89 274 -171 49 -56 99 -160 102 -208 1 -21 5 -43 9 -49 6 -11 -2 -79
-15 -118 -1 -5 -2 -12 -1 -16 1 -5 -5 -23 -13 -40 -7 -18 -19 -47 -26 -64 -7
-18 -16 -33 -21 -33 -5 0 -8 -4 -7 -9 6 -21 -103 -148 -182 -214 -39 -33 -117
-87 -125 -87 -4 0 -21 -11 -37 -25 -16 -14 -34 -23 -39 -19 -5 3 -9 0 -9 -6 0
-5 -25 -21 -55 -35 -30 -13 -58 -31 -61 -39 -3 -9 -11 -13 -17 -9 -6 3 -2 -5
8 -18 18 -24 20 -25 69 -12 28 8 62 11 76 9 14 -3 19 -3 11 1 -12 5 117 73
140 73 5 0 9 5 9 10 0 6 5 10 11 10 24 0 176 135 214 190 15 22 32 37 36 34 5
-3 9 -2 8 3 -3 20 15 53 37 68 14 9 24 21 23 28 -3 24 1 37 12 37 5 0 7 -4 4
-10 -3 -5 -2 -10 3 -10 13 0 33 -50 26 -62 -5 -7 -2 -8 6 -3 10 6 12 3 8 -13
-4 -12 -2 -20 3 -16 5 3 9 -26 9 -65 0 -43 -4 -71 -11 -71 -5 0 -8 -4 -5 -8 8
-14 -16 -82 -27 -75 -6 3 -7 1 -4 -5 8 -12 -2 -44 -12 -37 -4 2 -8 -1 -8 -8 0
-21 -55 -97 -70 -97 -8 0 -11 -4 -8 -10 3 -5 1 -10 -4 -10 -6 0 -10 -5 -9 -12
2 -7 -4 -12 -12 -13 -8 -1 -14 -7 -12 -14 1 -7 -2 -10 -6 -7 -5 3 -21 -9 -36
-26 -14 -18 -26 -29 -26 -25 0 3 -12 -5 -26 -18 -15 -14 -33 -25 -40 -25 -8 0
-14 -5 -14 -10 0 -6 -20 -15 -44 -22 -25 -6 -43 -15 -41 -19 3 -4 -3 -9 -13
-12 -9 -3 -50 -17 -90 -31 -40 -15 -105 -34 -145 -42 -73 -16 -94 -22 -202
-48 -33 -9 -157 -38 -275 -65 -118 -28 -236 -55 -261 -61 -25 -6 -59 -8 -75
-5 -21 5 -25 4 -15 -3 11 -8 9 -10 -10 -10 -13 0 -76 -5 -139 -11 -253 -24
-681 -8 -925 35 -22 4 -47 8 -55 9 -59 9 -99 18 -96 24 2 3 -10 6 -27 7 -45 1
-139 29 -130 38 4 4 -5 4 -21 0 -18 -4 -27 -3 -23 3 4 6 -8 10 -28 11 -47 2
-108 29 -99 43 5 8 2 9 -11 2 -18 -10 -113 18 -177 53 -16 8 -28 12 -28 9 0
-3 -17 3 -37 13 -21 11 -53 26 -71 33 -25 9 -30 14 -20 21 9 7 8 8 -5 4 -22
-7 -140 61 -131 76 3 4 2 7 -3 6 -14 -5 -73 45 -66 55 3 6 1 7 -4 4 -13 -8
-65 57 -55 68 4 3 0 5 -8 3 -9 -2 -16 6 -18 20 -2 12 -8 20 -13 17 -5 -4 -9 1
-9 9 0 9 -5 16 -11 16 -6 0 -9 9 -6 20 3 11 1 18 -3 15 -17 -11 -42 107 -36
174 3 36 6 74 6 85 1 26 36 87 44 79 4 -4 4 -1 1 8 -6 17 53 89 73 89 7 0 11
4 8 9 -6 9 22 26 37 22 5 -1 6 3 2 9 -20 32 166 160 333 229 40 17 70 25 66
20 -3 -6 4 -5 17 2 13 8 33 14 44 14 11 1 30 5 42 9 18 6 23 1 33 -28 6 -20 8
-41 4 -48 -4 -7 -4 -10 1 -6 12 11 35 -11 35 -33 0 -11 6 -18 13 -16 6 1 11
-5 9 -13 -2 -8 0 -12 4 -8 9 10 66 -31 59 -42 -3 -5 -1 -11 5 -15 6 -4 8 -11
5 -16 -3 -5 1 -6 10 -3 14 6 14 8 -2 20 -11 8 -13 13 -6 14 7 0 18 -9 25 -20
7 -11 18 -20 24 -20 6 0 19 -9 29 -20 10 -11 36 -25 57 -32 21 -6 38 -14 38
-19 0 -4 7 -10 16 -13 9 -3 12 -2 9 5 -4 6 2 8 18 4 27 -7 40 5 32 27 -3 7
-54 47 -112 88 -114 80 -180 140 -194 178 -36 93 32 277 149 404 94 102 280
208 336 193 17 -5 18 -4 6 4 -8 6 -12 11 -7 11 7 0 141 35 181 47 15 4 18 2
11 -13 -7 -18 -8 -111 -1 -144 4 -18 12 -42 33 -93 17 -40 92 -116 139 -140
51 -26 106 -38 121 -25 21 17 16 24 -34 53 -132 76 -186 153 -186 265 0 71 20
128 71 202 16 24 39 71 52 105 19 54 22 76 18 165 -5 111 -33 210 -96 335 -22
43 -28 63 -19 66 26 9 275 6 332 -4z m1982 -2046 c23 -56 13 -151 -20 -195
-14 -18 -39 -62 -55 -98 -51 -114 -208 -242 -417 -341 -118 -55 -299 -120
-435 -154 -458 -115 -1200 -175 -1675 -136 -468 39 -867 161 -1102 337 -164
123 -271 291 -275 432 -1 57 17 132 31 132 5 0 11 -17 15 -37 9 -57 61 -158
116 -228 117 -147 305 -251 667 -369 399 -130 646 -167 1122 -167 400 0 471
10 1055 157 333 84 426 113 516 162 124 68 259 191 334 303 38 58 85 177 86
217 0 34 19 26 37 -15z m-3745 -645 c15 -14 28 -36 28 -49 0 -25 17 -84 105
-369 271 -874 345 -1271 360 -1920 3 -151 11 -338 16 -415 16 -213 65 -443
109 -505 10 -14 31 -52 48 -86 88 -174 256 -301 511 -384 151 -49 294 -71 501
-77 298 -9 495 29 715 137 235 116 386 274 439 460 15 53 67 367 121 725 171
1134 277 1710 381 2085 46 167 132 424 147 442 7 8 32 30 56 48 35 27 42 30
38 14 -55 -175 -73 -241 -102 -359 -18 -77 -47 -207 -64 -290 -88 -432 -287
-1549 -391 -2194 -12 -74 -26 -144 -30 -157 -5 -13 -16 -90 -25 -171 -23 -213
-56 -350 -109 -458 -111 -225 -328 -348 -711 -402 -185 -27 -598 -24 -765 5
-379 65 -695 212 -830 387 -53 68 -87 140 -110 230 -19 74 -24 129 -55 610
-61 931 -227 1854 -480 2670 -25 79 -45 147 -45 150 0 7 21 -12 142 -127z
m3364 -62 c-13 -34 -24 -50 -29 -42 -5 6 -6 2 -2 -10 3 -12 -3 -46 -14 -75
-23 -61 -81 -260 -88 -302 -5 -28 -79 -101 -93 -92 -5 3 -11 -2 -14 -11 -4
-11 -13 -14 -27 -11 -12 3 -18 3 -15 -1 13 -13 -207 -67 -232 -57 -8 3 -21 0
-28 -6 -8 -6 -21 -9 -29 -5 -9 3 -14 2 -11 -2 3 -5 -18 -14 -47 -22 -29 -7
-73 -23 -99 -35 -34 -17 -49 -20 -58 -11 -8 8 -10 7 -5 -5 4 -12 -15 -25 -82
-57 -129 -60 -191 -75 -313 -76 -97 0 -118 4 -275 50 -162 47 -175 49 -285 48
-63 -1 -155 -8 -204 -17 -119 -23 -254 -22 -342 2 -38 10 -141 45 -229 79 -88
33 -214 71 -279 86 -146 32 -188 55 -287 159 l-77 79 -59 169 c-33 93 -57 168
-54 167 259 -130 375 -174 594 -222 336 -76 818 -101 1262 -66 223 17 594 65
730 95 66 15 131 28 145 30 14 2 44 10 68 19 23 8 42 14 42 12 0 -2 50 14 112
35 62 21 116 35 122 32 5 -3 6 -1 2 5 -4 7 -3 12 3 12 5 0 22 5 38 12 15 6 31
11 36 10 4 -1 7 3 7 9 0 6 7 9 15 5 8 -3 15 -1 15 3 0 5 20 17 45 27 25 9 45
21 45 25 0 5 4 9 9 9 4 0 -1 -24 -13 -54z m903 -31 c114 -27 187 -70 281 -164
71 -71 94 -103 133 -181 203 -413 53 -934 -392 -1362 -137 -132 -261 -223
-421 -309 -509 -275 -558 -316 -714 -591 -26 -46 -40 -62 -31 -35 2 6 25 140
50 297 46 278 48 286 82 332 84 115 141 151 563 350 292 139 459 283 561 488
145 289 54 613 -208 738 -75 36 -82 37 -188 37 -81 0 -124 -5 -165 -19 -96
-33 -189 -87 -261 -154 -38 -35 -72 -63 -74 -61 -2 2 12 78 31 168 19 90 34
168 34 172 0 14 78 99 138 150 151 130 389 189 581 144z m-142 -508 c136 -70
214 -198 216 -357 1 -97 -16 -167 -65 -261 -102 -198 -267 -326 -635 -493
-172 -77 -297 -142 -335 -174 -16 -14 -31 -22 -34 -19 -5 5 75 464 153 870
l36 188 81 75 c168 157 278 207 441 200 73 -2 100 -8 142 -29z m-3437 -1366
c25 -5 104 -12 177 -15 148 -8 205 -21 295 -72 127 -70 194 -102 248 -115 78
-19 231 -15 405 11 174 26 240 23 390 -16 74 -19 129 -26 213 -28 61 -1 107 1
101 5 -6 3 -1 9 13 14 12 4 25 8 28 9 37 17 63 26 71 26 6 0 7 5 3 12 -5 8 0
9 14 6 12 -4 20 -3 18 1 -5 7 16 14 197 64 100 27 94 34 72 -83 -8 -41 -17
-93 -20 -116 -3 -22 -21 -141 -41 -265 -19 -123 -38 -248 -41 -277 -3 -30 -9
-49 -13 -43 -3 6 -7 -3 -7 -21 -2 -101 -4 -106 -33 -117 -16 -5 -31 -7 -34 -4
-3 4 -6 1 -6 -6 0 -7 -6 -11 -14 -8 -8 3 -16 3 -18 -2 -5 -12 -125 -71 -132
-64 -3 4 -6 1 -6 -6 0 -8 -6 -11 -16 -7 -8 3 -12 2 -9 -4 5 -8 -55 -31 -100
-37 -11 -2 -34 -6 -51 -9 -21 -4 -83 7 -180 31 -118 30 -158 36 -199 30 -27
-3 -60 -6 -72 -7 -13 0 -21 -3 -19 -7 1 -3 -25 -20 -60 -36 -34 -17 -60 -27
-58 -23 3 4 -2 5 -10 2 -9 -3 -14 -10 -11 -14 8 -13 -119 -50 -171 -50 -52 0
-156 29 -148 41 2 4 -1 11 -7 15 -8 4 -9 3 -5 -4 11 -17 -9 -15 -49 7 -19 10
-31 21 -28 25 4 4 -1 4 -10 0 -12 -4 -23 0 -33 12 -9 11 -13 13 -9 6 5 -10 1
-10 -19 -1 -14 7 -23 16 -19 22 3 5 -3 6 -17 2 -15 -5 -20 -3 -16 3 4 7 -6 10
-26 10 -37 0 -274 27 -326 38 -18 4 -35 11 -38 15 -3 5 -16 9 -28 9 -48 0
-236 166 -219 193 3 6 1 7 -5 3 -20 -12 -34 44 -31 121 2 40 1 75 -3 78 -4 4
-7 91 -7 193 -1 177 -5 273 -17 440 l-5 73 48 -25 c26 -14 68 -29 93 -35z"/>
</g>
</svg>
